# xmcd
#
# Track frame offsets:
#	150
#	28327
#	43232
#	58551
#	76226
#	95995
#	111057
#	129501
#	156071
#	186288
#	204440
#	223810
#	248687
#	263674
#	291528
#	315640
#
# Disc length: 4481 seconds
#
# Revision: 0
# Processed by: cddbd v1.5.2PL0 Copyright (c) Steve Scherf et al.
# Submitted via: EasyCDDAExtractor 12.0.6 .1
#
DISCID=f0117f10
DTITLE=Oasis - SOTSOG Sessions CD2
DYEAR=2000
DGENRE=Psychedelic Rock
TTITLE0=Unkle - The Knock-On Effect
TTITLE1=Fuckin'In The Bushes
TTITLE2=Fuckin'In The Bushes
TTITLE3=Let's All Make Believe
TTITLE4=Cigarettes In Hell
TTITLE5=Fuckin'In The Bushes (Clean Version)
TTITLE6=One Way Road
TTITLE7=Helter Skelter
TTITLE8=Gas Panic! (Demo)
TTITLE9=Carry Us All
TTITLE10=Full On
TTITLE11=Go Let It Out (Demo)
TTITLE12=Just Getting Older
TTITLE13=Who Feels Love (Acoustic)
TTITLE14=Sunday Morning Call (Acoustic)
TTITLE15=Where Did It All Go Wrong? (Semi-Acoustic)
EXTD=
EXTT0=
EXTT1=
EXTT2=
EXTT3=
EXTT4=
EXTT5=
EXTT6=
EXTT7=
EXTT8=
EXTT9=
EXTT10=
EXTT11=
EXTT12=
EXTT13=
EXTT14=
EXTT15=
PLAYORDER=
